<svg xmlns="http://www.w3.org/2000/svg" width="495" height="148"><g fill="none" fill-rule="nonzero"><path fill="#1574C4" d="M36.352 43.29c-1.644-2.374-4.385-3.73-7.307-3.73-2.375 0-4.932.847-6.576 2.374-2.01 1.865-3.107 4.576-3.107 8.474v38.481c0 3.902 1.097 6.611 3.107 8.478 1.644 1.525 4.201 2.204 6.576 2.204 2.922 0 5.663-1.188 7.307-3.559 2.557-4.07 2.74-13.224 2.74-26.446 0-13.224-.183-22.21-2.74-26.276zm15.344 65.438c-4.384 5.084-9.865 6.948-16.988 6.948-3.472 0-6.942-1.017-9.684-2.541-2.008-1.018-5.295-3.901-6.393-5.599v8.159H0V10.4L19.362.56v30.184c1.463-1.863 3.654-3.73 5.662-4.747 2.742-1.524 6.212-2.373 9.684-2.373 7.49 0 12.604 2.034 16.988 6.95 6.393 7.29 6.76 19.665 6.76 38.992 0 19.323-.367 31.869-6.76 39.162zm27.201.169c-6.027-4.241-9.68-9.718-9.68-20.398V10.4L88.581.56v86.921c0 7.968 4.2 12.036 13.15 12.036v16.106c-8.95 0-16.44-2.152-22.834-6.726zm69.538 6.779v-8.14c-1.646 2.039-4.204 4.41-6.579 5.599-2.739 1.524-6.21 2.541-9.681 2.541-7.854 0-13.152-2.205-17.535-6.948-3.837-4.072-5.482-8.987-5.482-19.328V23.622h19.363v65.606c0 6.953 4.202 10.343 9.5 10.343s9.498-3.39 9.498-10.343V23.622h19.365v92.054h-18.45.001z"/><path fill="#F57925" d="M217.992 50.533c0-3.73-1.095-6.44-2.921-8.306-1.644-1.695-4.019-2.543-6.76-2.543-3.471 0-5.298 1.526-7.124 3.732-2.926 3.559-2.926 12.441-2.926 23.46s0 19.663 2.926 23.225c1.826 2.204 3.653 3.563 7.124 3.563 2.741 0 5.3-.852 6.941-2.547 1.828-1.865 2.74-4.406 2.74-8.138V50.533zm11.143 90.164c-4.931 4.58-12.968 7.29-20.824 7.29-8.038 0-15.527-2.202-20.826-6.95-5.845-5.424-8.036-13.303-8.036-20.76h19.182c0 3.388.729 7.371 2.737 9.571 1.645 1.696 4.021 2.708 6.943 2.708 2.922 0 5.3-1.181 6.941-2.875 2.01-2.208 2.74-6.52 2.74-12.116v-15.257c-1.643 2.033-3.652 3.896-5.479 4.914-2.558 1.53-5.481 2.038-9.318 2.038-8.036 0-12.236-1.865-16.622-6.615-6.028-6.61-7.672-16.784-7.672-35.938 0-19.156 1.644-29.497 7.672-36.11 4.386-4.746 8.402-6.973 16.622-6.973 3.472 0 6.944.85 9.866 2.373 2.01 1.018 4.2 2.884 5.663 4.747v-7.12h18.633v92.753c0 11.526-2.925 19.403-8.222 24.32zm56.313-97.578c-1.645-2.035-3.836-3.558-7.305-3.558-3.474 0-5.664 1.523-7.31 3.558-2.193 2.543-2.921 9.326-2.921 18.48h20.273c0-9.154-.546-15.937-2.737-18.48zm-17.536 31.7c0 10.174.547 17.972 2.921 21.193 1.464 2.035 4.006 3.544 7.479 3.544 3.287 0 5.49-1.34 7.319-3.544 1.46-1.697 2.374-5.256 2.374-7.968h19.18c-.365 7.456-2.554 14.917-8.04 20.512-4.932 5.085-12.434 7.105-20.833 7.105-8.952 0-14.967-1.849-20.813-7.273-8.222-7.63-8.951-22.55-8.951-38.822 0-16.275.73-31.193 8.95-38.822 5.847-5.425 12.789-7.12 20.645-7.12 8.034 0 14.977 1.526 20.641 7.12 9.312 9.156 8.585 27.293 8.765 44.075h-39.637zm89.552 40.842V50.07c0-6.95-4.207-10.34-9.5-10.34-5.3 0-9.503 3.39-9.503 10.34v65.592H319.1V23.624h18.633v7.969c1.645-2.037 4.023-4.409 6.393-5.596 2.739-1.524 6.211-2.373 9.682-2.373 7.857 0 13.154 2.206 17.54 6.95 3.833 4.068 5.476 8.987 5.476 19.326v65.761H357.464zm46.5-5.421c-6.03-4.41-9.683-11.19-9.683-21.701V37.353h-9.86V23.622h9.86V10.4L413.643.63v22.992h13.338v13.731h-13.338v50.169c0 8.306 4.57 12.037 13.704 12.037v16.106c-9.134 0-16.808-.681-23.383-5.425zM487.528 32.94c-5.828-7.29-13.908-9.324-23.497-9.324-9.594 0-17.674 2.034-23.503 9.325-6.205 7.798-6.955 21.531-6.955 36.617 0 15.087.75 28.82 6.955 36.615 2.227 2.787 4.787 4.826 7.63 6.287V47.882s5.178-1.037 15.555-1.037c10.038 0 16.188 1.037 16.188 1.037v64.578c2.844-1.461 5.402-3.5 7.627-6.287 6.204-7.796 6.959-21.528 6.959-36.615 0-15.086-.755-28.82-6.959-36.617"/><path fill="#F57925" d="M450.044 49.382v64.02s3.263 1.916 8.092 3.509c6.224 2.054 8.2 2.57 8.2 2.57V55.452s-3.323-1.435-8.563-3.415c-6.133-2.32-7.729-2.655-7.729-2.655"/></g></svg>