<svg xmlns="http://www.w3.org/2000/svg" xmlns:xlink="http://www.w3.org/1999/xlink" fill="none" stroke="none" stroke-linecap="square" stroke-miterlimit="10" version="1.1" viewBox="0 0 2000 2000"><clipPath id="p.0"><path d="m0 0l2000.0 0l0 2000.0l-2000.0 0l0 -2000.0z" clip-rule="nonzero"/></clipPath><g clip-path="url(#p.0)"><path fill="#000" fill-opacity="0" fill-rule="evenodd" d="m0 0l2000.0 0l0 2000.0l-2000.0 0z"/><defs><radialGradient id="p.1" cx="65.946" cy="89.446" r="14.969" fx="65.946" fy="89.446" gradientTransform="matrix(14.968742722561093 0.0 0.0 14.968742722561093 0.0 0.0)" gradientUnits="userSpaceOnUse" spreadMethod="pad"><stop offset="0" stop-color="#fff6db"/><stop offset="1" stop-color="#fad25c"/></radialGradient></defs><path fill="url(#p.1)" fill-rule="evenodd" d="m799.1886 1216.8855l375.86987 0l-75.17395 244.00659l-225.52191 0z"/><path fill-rule="evenodd" stroke="#f1c232" stroke-linecap="butt" stroke-linejoin="round" stroke-width="16" d="m799.1886 1216.8855l375.86987 0l-75.17395 244.00659l-225.52191 0z"/><defs><radialGradient id="p.2" cx="54.321" cy="-84.259" r="18.172" fx="54.321" fy="-84.259" gradientTransform="matrix(18.17191976591914 0.0 0.0 -18.17191976591914 0.0 0.0)" gradientUnits="userSpaceOnUse" spreadMethod="pad"><stop offset="0" stop-color="#fff6db"/><stop offset="1" stop-color="#fad25c"/></radialGradient></defs><path fill="url(#p.2)" fill-rule="evenodd" d="m664.4651 1601.4036l645.3169 0l-129.06335 -140.51172l-387.19012 0z"/><path fill-rule="evenodd" stroke="#f1c232" stroke-linecap="butt" stroke-linejoin="round" stroke-width="16" d="m664.4651 1601.4036l645.3169 0l-129.06335 -140.51172l-387.19012 0z"/><defs><radialGradient id="p.3" cx="-24.628" cy="15.91" r="21.621" fx="-24.628" fy="15.91" gradientTransform="matrix(-1.4172981138623033 -21.62051328923875 21.62051328923875 -1.4172981138623033 0.0 0.0)" gradientUnits="userSpaceOnUse" spreadMethod="pad"><stop offset="0" stop-color="#fff6db"/><stop offset="1" stop-color="#fad25c"/></radialGradient></defs><path fill="url(#p.3)" fill-rule="evenodd" d="m637.8239 897.6647l0 0c-152.6182 26.748169 -307.67087 -30.21698 -403.19592 -148.13092c-95.52504 -117.914 -115.94441 -277.54764 -53.098114 -415.10822c62.846283 -137.56055 198.70937 -230.6149 353.29565 -241.97672l5.4125366 73.08685c-127.54492 9.360565 -239.682 85.6476 -291.61658 198.3872c-51.934555 112.73959 -35.20114 243.55502 43.515823 340.19016c78.71698 96.63519 206.58655 143.33838 332.5294 121.45343z"/><path fill-rule="evenodd" stroke="#f1c232" stroke-linecap="butt" stroke-linejoin="round" stroke-width="16" d="m637.8239 897.6647l0 0c-152.6182 26.748169 -307.67087 -30.21698 -403.19592 -148.13092c-95.52504 -117.914 -115.94441 -277.54764 -53.098114 -415.10822c62.846283 -137.56055 198.70937 -230.6149 353.29565 -241.97672l5.4125366 73.08685c-127.54492 9.360565 -239.682 85.6476 -291.61658 198.3872c-51.934555 112.73959 -35.20114 243.55502 43.515823 340.19016c78.71698 96.63519 206.58655 143.33838 332.5294 121.45343z"/><defs><radialGradient id="p.4" cx="-15.204" cy="-76.03" r="21.568" fx="-15.204" fy="-76.03" gradientTransform="matrix(2.5628433155605985 -21.568283353466818 -21.568283353466818 -2.5628433155605985 0.0 0.0)" gradientUnits="userSpaceOnUse" spreadMethod="pad"><stop offset="0" stop-color="#fff6db"/><stop offset="1" stop-color="#fad25c"/></radialGradient></defs><path fill="url(#p.4)" fill-rule="evenodd" d="m1321.8257 896.3267l0 0c150.99316 34.760864 308.83716 -13.949646 410.45422 -126.66577c101.617065 -112.716125 130.43555 -271.0563 74.93909 -411.74445c-55.49646 -140.68817 -186.25769 -240.7811 -340.0287 -260.27957l-9.263184 72.70213c126.871704 16.073776 234.82397 98.17085 280.73364 213.49626c45.909668 115.32541 22.293457 245.08087 -61.414917 337.4336c-83.708496 92.35266 -213.86426 132.2489 -338.47485 103.751465z"/><path fill-rule="evenodd" stroke="#f1c232" stroke-linecap="butt" stroke-linejoin="round" stroke-width="16" d="m1321.8257 896.3267l0 0c150.99316 34.760864 308.83716 -13.949646 410.45422 -126.66577c101.617065 -112.716125 130.43555 -271.0563 74.93909 -411.74445c-55.49646 -140.68817 -186.25769 -240.7811 -340.0287 -260.27957l-9.263184 72.70213c126.871704 16.073776 234.82397 98.17085 280.73364 213.49626c45.909668 115.32541 22.293457 245.08087 -61.414917 337.4336c-83.708496 92.35266 -213.86426 132.2489 -338.47485 103.751465z"/><defs><radialGradient id="p.5" cx="53.31" cy="37.472" r="9.403" fx="53.31" fy="37.472" gradientTransform="matrix(9.40298807790944 0.0 0.0 9.40298807790944 0.0 0.0)" gradientUnits="userSpaceOnUse" spreadMethod="pad"><stop offset="0" stop-color="#fff6db"/><stop offset="1" stop-color="#fad25c"/></radialGradient></defs><path fill="url(#p.5)" fill-rule="evenodd" d="m438.75586 352.3522l0 0c0 -34.528656 27.990997 -62.519684 62.519684 -62.519684l0 0c16.581268 0 32.483368 6.5868835 44.2081 18.311584c11.724731 11.724731 18.311584 27.626862 18.311584 44.2081l0 0c0 34.528687 -27.991028 62.519684 -62.519684 62.519684l0 0c-34.528687 0 -62.519684 -27.990997 -62.519684 -62.519684zm31.259827 0l0 0c0 17.264343 13.995514 31.259857 31.259857 31.259857c17.264313 0 31.259857 -13.995514 31.259857 -31.259857c0 -17.264343 -13.995544 -31.259827 -31.259857 -31.259827l0 0c-17.264343 0 -31.259857 13.995483 -31.259857 31.259827z"/><defs><radialGradient id="p.6" cx="156.787" cy="37.472" r="9.403" fx="156.787" fy="37.472" gradientTransform="matrix(9.40298807790944 0.0 0.0 9.40298807790944 0.0 0.0)" gradientUnits="userSpaceOnUse" spreadMethod="pad"><stop offset="0" stop-color="#fff6db"/><stop offset="1" stop-color="#fad25c"/></radialGradient></defs><path fill="url(#p.6)" fill-rule="evenodd" d="m1411.7461 352.3522l0 0c0 -34.528656 27.991089 -62.519684 62.519775 -62.519684l0 0c16.581177 0 32.483276 6.5868835 44.208008 18.311584c11.724731 11.724731 18.311646 27.626862 18.311646 44.2081l0 0c0 34.528687 -27.991089 62.519684 -62.519653 62.519684l0 0c-34.528687 0 -62.519775 -27.990997 -62.519775 -62.519684zm31.259888 0l0 0c0 17.264343 13.995483 31.259857 31.259888 31.259857c17.264282 0 31.259766 -13.995514 31.259766 -31.259857c0 -17.264343 -13.995483 -31.259827 -31.259766 -31.259827l0 0c-17.264404 0 -31.259888 13.995483 -31.259888 31.259827z"/><defs><radialGradient id="p.7" cx="35.391" cy="22.086" r="27.892" fx="35.391" fy="22.086" gradientTransform="matrix(27.89176622875611 0.0 0.0 27.89176622875611 0.0 0.0)" gradientUnits="userSpaceOnUse" spreadMethod="pad"><stop offset="0" stop-color="#fff6db"/><stop offset="1" stop-color="#fad25c"/></radialGradient></defs><path fill="url(#p.7)" fill-rule="evenodd" d="m493.00092 15.131088l988.24115 0l-197.64832 1201.7521l-592.94464 0z"/><path fill-rule="evenodd" stroke="#f1c232" stroke-linecap="butt" stroke-linejoin="round" stroke-width="16" d="m493.00092 15.131088l988.24115 0l-197.64832 1201.7521l-592.94464 0z"/><g filter="url(#shadowFilter-p.8)"><use transform="matrix(1.0 0.0 0.0 1.0 2.802994855745571 22.828560736548557)" xlink:href="#p.8"/></g><defs><filter id="shadowFilter-p.8" filterUnits="userSpaceOnUse"><feGaussianBlur in="SourceAlpha" result="blur" stdDeviation="6"/><feComponentTransfer color-interpolation-filters="sRGB" in="blur"><feFuncR intercept=".953" slope="0" type="linear"/><feFuncG intercept=".953" slope="0" type="linear"/><feFuncB intercept=".953" slope="0" type="linear"/><feFuncA intercept="0" slope=".76" type="linear"/></feComponentTransfer></filter></defs><g id="p.8"><path fill="#006eb8" fill-rule="evenodd" d="m664.4688 409.51407l88.90686 -62.630127l-45.680542 -98.69269l108.31067 -9.785873l9.785828 -108.31064l98.69275 45.680496l62.630127 -88.90682l62.630127 88.90682l98.69275 -45.680496l9.785767 108.31064l108.31067 9.785873l-45.680542 98.69269l88.90686 62.630127l-88.90686 62.630157l45.680542 98.69269l-108.31067 9.785889l-9.785767 108.31061l-98.69275 -45.68048l-62.630127 88.9068l-62.630127 -88.9068l-98.69275 45.68048l-9.785828 -108.31061l-108.31067 -9.785889l45.680542 -98.69269z"/><path fill-rule="evenodd" stroke="#fff" stroke-linecap="butt" stroke-linejoin="round" stroke-width="16" d="m664.4688 409.51407l88.90686 -62.630127l-45.680542 -98.69269l108.31067 -9.785873l9.785828 -108.31064l98.69275 45.680496l62.630127 -88.90682l62.630127 88.90682l98.69275 -45.680496l9.785767 108.31064l108.31067 9.785873l-45.680542 98.69269l88.90686 62.630127l-88.90686 62.630157l45.680542 98.69269l-108.31067 9.785889l-9.785767 108.31061l-98.69275 -45.68048l-62.630127 88.9068l-62.630127 -88.9068l-98.69275 45.68048l-9.785828 -108.31061l-108.31067 -9.785889l45.680542 -98.69269z"/></g><path fill="#fff" fill-rule="evenodd" d="m955.5261 295.03152c-1.6100464 3.2200928 -5.156555 7.027649 -10.639465 11.422668c-5.482849 4.3950195 -11.574951 8.528931 -18.276306 12.401764c-6.657776 3.8728333 -13.337341 7.22348 -20.038635 10.051971c-6.657776 2.7849426 -11.857849 4.177429 -15.600159 4.177429l0 69.84149c5.0913086 0 10.835266 -0.8049927 17.231995 -2.4150696c6.4401855 -1.6100464 12.793396 -3.742279 19.05957 -6.396698c6.2661133 -2.6979065 11.944824 -5.569916 17.036133 -8.615967c5.0912476 -3.0895386 8.833496 -6.244385 11.226868 -9.464508l0 79.82822l-56.917664 0l0 68.14444l185.63507 0l0 -68.14444l-50.912598 0l0 -160.8313z"/><defs><radialGradient id="p.9" cx="46.931" cy="85.252" r="21.033" fx="46.931" fy="85.252" gradientTransform="matrix(21.03323809257131 0.0 0.0 21.03323809257131 0.0 0.0)" gradientUnits="userSpaceOnUse" spreadMethod="pad"><stop offset="0" stop-color="#f48208"/><stop offset="1" stop-color="#703e08"/></radialGradient></defs><path fill="url(#p.9)" fill-rule="evenodd" d="m652.3282 1601.4036l669.5723 0c16.949097 0 33.20398 6.733032 45.188843 18.717896c11.984863 11.984863 18.717896 28.239746 18.717896 45.188843l0 319.52637c0 0.0036621094 -0.0029296875 0.006591797 -0.006591797 0.006591797l-797.3792 -0.006591797l0 0c-0.0037231445 0 -0.006652832 -0.0030517578 -0.006652832 -0.006713867l0.006652832 -319.51965l0 0c0 -35.294678 28.612 -63.90674 63.90674 -63.90674z"/><path fill-rule="evenodd" stroke="#b45f06" stroke-linecap="butt" stroke-linejoin="round" stroke-width="16" d="m652.3282 1601.4036l669.5723 0c16.949097 0 33.20398 6.733032 45.188843 18.717896c11.984863 11.984863 18.717896 28.239746 18.717896 45.188843l0 319.52637c0 0.0036621094 -0.0029296875 0.006591797 -0.006591797 0.006591797l-797.3792 -0.006591797l0 0c-0.0037231445 0 -0.006652832 -0.0030517578 -0.006652832 -0.006713867l0.006652832 -319.51965l0 0c0 -35.294678 28.612 -63.90674 63.90674 -63.90674z"/><defs><radialGradient id="p.10" cx="47.682" cy="93.408" r="20.702" fx="47.682" fy="93.408" gradientTransform="matrix(20.701817497587307 0.0 0.0 20.701817497587307 0.0 0.0)" gradientUnits="userSpaceOnUse" spreadMethod="pad"><stop offset="0" stop-color="#f48208"/><stop offset="1" stop-color="#703e08"/></radialGradient></defs><path fill="url(#p.10)" fill-rule="evenodd" d="m578.6733 1882.5367l816.88116 0c4.5234375 0 8.861572 1.796875 12.060059 4.9954834c3.1984863 3.1984863 4.9954834 7.536621 4.9954834 12.060059l0 85.27515c0 0.00390625 -0.0031738281 0.007080078 -0.007080078 0.007080078l-850.9851 -0.007080078l0 0c-0.00390625 0 -0.007080078 -0.0031738281 -0.007080078 -0.007080078l0.007080078 -85.26807l0 0c0 -9.419556 7.6359863 -17.055542 17.055481 -17.055542z"/><path fill-rule="evenodd" stroke="#b45f06" stroke-linecap="butt" stroke-linejoin="round" stroke-width="16" d="m578.6733 1882.5367l816.88116 0c4.5234375 0 8.861572 1.796875 12.060059 4.9954834c3.1984863 3.1984863 4.9954834 7.536621 4.9954834 12.060059l0 85.27515c0 0.00390625 -0.0031738281 0.007080078 -0.007080078 0.007080078l-850.9851 -0.007080078l0 0c-0.00390625 0 -0.007080078 -0.0031738281 -0.007080078 -0.007080078l0.007080078 -85.26807l0 0c0 -9.419556 7.6359863 -17.055542 17.055481 -17.055542z"/></g></svg>