<svg xmlns="http://www.w3.org/2000/svg" xmlns:xlink="http://www.w3.org/1999/xlink" fill="none" stroke="none" stroke-linecap="square" stroke-miterlimit="10" version="1.1" viewBox="0 0 2000 2000"><clipPath id="p.0"><path d="m0 0l2000.0 0l0 2000.0l-2000.0 0l0 -2000.0z" clip-rule="nonzero"/></clipPath><g clip-path="url(#p.0)"><path fill="#000" fill-opacity="0" fill-rule="evenodd" d="m0 0l2000.0 0l0 2000.0l-2000.0 0z"/><path fill="#006eb8" fill-rule="evenodd" d="m41.18107 999.99994l0 0c0 -529.541 429.27786 -958.81885 958.81885 -958.81885l0 0c254.29462 0 498.1739 101.018135 677.98737 280.83157c179.81348 179.81342 280.83154 423.69275 280.83154 677.9873l0 0c0 529.5411 -429.27783 958.8189 -958.8189 958.8189l0 0c-529.541 0 -958.81885 -429.27783 -958.81885 -958.8189z"/><path fill="#f18626" fill-rule="evenodd" d="m130.96588 1000.00525l0 0c0 -479.95715 389.0822 -869.03937 869.03937 -869.03937l0 0c230.48352 0 451.5271 91.55925 614.50366 254.53574c162.97644 162.97653 254.53577 384.02005 254.53577 614.50366l0 0c0 479.95715 -389.08228 869.0394 -869.0394 869.0394l0 0c-479.95715 0 -869.03937 -389.08228 -869.03937 -869.0394z"/><path fill="#fff" fill-rule="evenodd" d="m223.74008 1000.0078l0 0c0 -428.72083 347.5469 -776.2677 776.2677 -776.2677l0 0c205.87903 0 403.32568 81.78511 548.9042 227.36354c145.57837 145.57843 227.36353 343.02515 227.36353 548.9042l0 0c0 428.72083 -347.54688 776.2677 -776.2677 776.2677l0 0c-428.72083 0 -776.2677 -347.54688 -776.2677 -776.2677z"/><defs><radialGradient id="p.1" cx="84.021" cy="102.557" r="11.806" fx="84.021" fy="102.557" gradientTransform="matrix(11.806496620538516 0.0 0.0 11.806496620538516 0.0 0.0)" gradientUnits="userSpaceOnUse" spreadMethod="pad"><stop offset="0" stop-color="#fff6db"/><stop offset="1" stop-color="#fad25c"/></radialGradient></defs><path fill="url(#p.1)" fill-rule="evenodd" d="m875.0748 1134.9329l233.8346 0l-46.766846 151.80054l-140.30084 0z"/><path fill-rule="evenodd" stroke="#f1c232" stroke-linecap="butt" stroke-linejoin="round" stroke-width="16" d="m875.0748 1134.9329l233.8346 0l-46.766846 151.80054l-140.30084 0z"/><defs><radialGradient id="p.2" cx="69.21" cy="-92.824" r="14.333" fx="69.21" fy="-92.824" gradientTransform="matrix(14.33297949419807 0.0 0.0 -14.33297949419807 0.0 0.0)" gradientUnits="userSpaceOnUse" spreadMethod="pad"><stop offset="0" stop-color="#fff6db"/><stop offset="1" stop-color="#fad25c"/></radialGradient></defs><path fill="url(#p.2)" fill-rule="evenodd" d="m791.26117 1374.1478l401.46198 0l-80.29248 -87.41467l-240.87714 0z"/><path fill-rule="evenodd" stroke="#f1c232" stroke-linecap="butt" stroke-linejoin="round" stroke-width="16" d="m791.26117 1374.1478l401.46198 0l-80.29248 -87.41467l-240.87714 0z"/><defs><radialGradient id="p.3" cx="-42.935" cy="33.167" r="17.053" fx="-42.935" fy="33.167" gradientTransform="matrix(-1.1177213908585266 -17.05323493325503 17.05323493325503 -1.1177213908585266 0.0 0.0)" gradientUnits="userSpaceOnUse" spreadMethod="pad"><stop offset="0" stop-color="#fff6db"/><stop offset="1" stop-color="#fad25c"/></radialGradient></defs><path fill="url(#p.3)" fill-rule="evenodd" d="m774.68646 936.34186l0 0c-94.94574 16.640564 -191.40576 -18.799988 -250.83276 -92.158875c-59.42694 -73.35889 -72.12955 -172.67291 -33.031555 -258.25403c39.09796 -85.58121 123.62048 -143.47308 219.79059 -150.5409l3.3668213 45.46997l0 0c-79.34668 5.8228455 -149.10828 53.283264 -181.41754 123.422485c-32.309235 70.13916 -21.899597 151.52429 27.070618 211.64484c48.970215 60.120544 128.51874 89.1767 206.86871 75.561584z"/><path fill-rule="evenodd" stroke="#f1c232" stroke-linecap="butt" stroke-linejoin="round" stroke-width="16" d="m774.68646 936.34186l0 0c-94.94574 16.640564 -191.40576 -18.799988 -250.83276 -92.158875c-59.42694 -73.35889 -72.12955 -172.67291 -33.031555 -258.25403c39.09796 -85.58121 123.62048 -143.47308 219.79059 -150.5409l3.3668213 45.46997l0 0c-79.34668 5.8228455 -149.10828 53.283264 -181.41754 123.422485c-32.309235 70.13916 -21.899597 151.52429 27.070618 211.64484c48.970215 60.120544 128.51874 89.1767 206.86871 75.561584z"/><defs><radialGradient id="p.4" cx="-31.295" cy="-84.475" r="17.012" fx="-31.295" fy="-84.475" gradientTransform="matrix(2.021089049653115 -17.011722082346232 -17.011722082346232 -2.021089049653115 0.0 0.0)" gradientUnits="userSpaceOnUse" spreadMethod="pad"><stop offset="0" stop-color="#fff6db"/><stop offset="1" stop-color="#fad25c"/></radialGradient></defs><path fill="url(#p.4)" fill-rule="evenodd" d="m1200.2141 935.4985c93.93628 21.627869 192.1333 -8.671997 255.34937 -78.79108c63.216064 -70.11914 81.14221 -168.62262 46.614746 -256.14655c-34.527466 -87.523926 -115.87793 -149.79498 -211.54199 -161.9285l-5.761841 45.22818c78.93005 10.002441 146.09094 61.07776 174.6543 132.82324c28.563232 71.74542 13.873047 152.46637 -38.20227 209.9176c-52.07544 57.451294 -133.04785 82.26825 -210.57141 64.53735z"/><path fill-rule="evenodd" stroke="#f1c232" stroke-linecap="butt" stroke-linejoin="round" stroke-width="16" d="m1200.2141 935.4985c93.93628 21.627869 192.1333 -8.671997 255.34937 -78.79108c63.216064 -70.11914 81.14221 -168.62262 46.614746 -256.14655c-34.527466 -87.523926 -115.87793 -149.79498 -211.54199 -161.9285l-5.761841 45.22818c78.93005 10.002441 146.09094 61.07776 174.6543 132.82324c28.563232 71.74542 13.873047 152.46637 -38.20227 209.9176c-52.07544 57.451294 -133.04785 82.26825 -210.57141 64.53735z"/><defs><radialGradient id="p.5" cx="92.997" cy="80.505" r="7.417" fx="92.997" fy="80.505" gradientTransform="matrix(7.416843378339528 0.0 0.0 7.416843378339528 0.0 0.0)" gradientUnits="userSpaceOnUse" spreadMethod="pad"><stop offset="0" stop-color="#fff6db"/><stop offset="1" stop-color="#fad25c"/></radialGradient></defs><path fill="url(#p.5)" fill-rule="evenodd" d="m650.8438 597.0954l0 0c0 -21.482605 17.4151 -38.897644 38.897644 -38.897644l0 0c10.316284 0 20.210083 4.0981445 27.504822 11.392822c7.2946777 7.294739 11.392822 17.188538 11.392822 27.504822l0 0c0 21.482544 -17.41504 38.897644 -38.897644 38.897644l0 0c-21.482544 0 -38.897644 -17.4151 -38.897644 -38.897644zm19.448853 0l0 0c0 10.741272 8.70752 19.448792 19.448792 19.448792c10.741272 0 19.448853 -8.70752 19.448853 -19.448792c0 -10.741272 -8.707581 -19.448853 -19.448853 -19.448853l0 0c-10.741272 0 -19.448792 8.707581 -19.448792 19.448853z"/><defs><radialGradient id="p.6" cx="174.61" cy="80.505" r="7.417" fx="174.61" fy="80.505" gradientTransform="matrix(7.416843378339528 0.0 0.0 7.416843378339528 0.0 0.0)" gradientUnits="userSpaceOnUse" spreadMethod="pad"><stop offset="0" stop-color="#fff6db"/><stop offset="1" stop-color="#fad25c"/></radialGradient></defs><path fill="url(#p.6)" fill-rule="evenodd" d="m1256.1566 597.0954l0 0c0 -21.482605 17.41504 -38.897644 38.897583 -38.897644l0 0c10.316284 0 20.210083 4.0981445 27.50476 11.392822c7.2948 7.294739 11.392944 17.188538 11.392944 27.504822l0 0c0 21.482544 -17.415161 38.897644 -38.897705 38.897644l0 0c-21.482544 0 -38.897583 -17.4151 -38.897583 -38.897644zm19.44873 0l0 0c0 10.741272 8.707642 19.448792 19.448853 19.448792c10.741333 0 19.448853 -8.70752 19.448853 -19.448792c0 -10.741272 -8.70752 -19.448853 -19.448853 -19.448853l0 0c-10.741211 0 -19.448853 8.707581 -19.448853 19.448853z"/><defs><radialGradient id="p.7" cx="45.092" cy="34.597" r="21.999" fx="45.092" fy="34.597" gradientTransform="matrix(21.999449147541757 0.0 0.0 21.999449147541757 0.0 0.0)" gradientUnits="userSpaceOnUse" spreadMethod="pad"><stop offset="0" stop-color="#fff6db"/><stop offset="1" stop-color="#fad25c"/></radialGradient></defs><path fill="url(#p.7)" fill-rule="evenodd" d="m684.5906 387.30142l614.80054 0l-122.96008 747.63l-368.88037 0z"/><path fill-rule="evenodd" stroke="#f1c232" stroke-linecap="butt" stroke-linejoin="round" stroke-width="16" d="m684.5906 387.30142l614.80054 0l-122.96008 747.63l-368.88037 0z"/><g filter="url(#shadowFilter-p.8)"><use transform="matrix(1.0 0.0 0.0 1.0 2.802994855745571 22.828560736548557)" xlink:href="#p.8"/></g><defs><filter id="shadowFilter-p.8" filterUnits="userSpaceOnUse"><feGaussianBlur in="SourceAlpha" result="blur" stdDeviation="6"/><feComponentTransfer color-interpolation-filters="sRGB" in="blur"><feFuncR intercept=".953" slope="0" type="linear"/><feFuncG intercept=".953" slope="0" type="linear"/><feFuncB intercept=".953" slope="0" type="linear"/><feFuncA intercept="0" slope=".76" type="linear"/></feComponentTransfer></filter></defs><g id="p.8"><path fill="#006eb8" fill-rule="evenodd" d="m791.2635 632.6548l55.31073 -38.96344l-28.418762 -61.398743l67.3822 -6.0879517l6.0880127 -67.38226l61.398743 28.418762l38.96344 -55.31073l38.96344 55.31073l61.398804 -28.418762l6.0880127 67.38226l67.3822 6.0879517l-28.418823 61.398743l55.31079 38.96344l-55.31079 38.9635l28.418823 61.398743l-67.3822 6.0879517l-6.0880127 67.38226l-61.398804 -28.418762l-38.96344 55.31073l-38.96344 -55.31073l-61.398743 28.418762l-6.0880127 -67.38226l-67.3822 -6.0879517l28.418762 -61.398743z"/><path fill-rule="evenodd" stroke="#fff" stroke-linecap="butt" stroke-linejoin="round" stroke-width="16" d="m791.2635 632.6548l55.31073 -38.96344l-28.418762 -61.398743l67.3822 -6.0879517l6.0880127 -67.38226l61.398743 28.418762l38.96344 -55.31073l38.96344 55.31073l61.398804 -28.418762l6.0880127 67.38226l67.3822 6.0879517l-28.418823 61.398743l55.31079 38.96344l-55.31079 38.9635l28.418823 61.398743l-67.3822 6.0879517l-6.0880127 67.38226l-61.398804 -28.418762l-38.96344 55.31073l-38.96344 -55.31073l-61.398743 28.418762l-6.0880127 -67.38226l-67.3822 -6.0879517l28.418762 -61.398743z"/></g><path fill="#fff" fill-rule="evenodd" d="m972.33484 561.4321c-1.001648 2.003296 -3.2079468 4.3720093 -6.6189575 7.106262c-3.4110107 2.734192 -7.200989 5.305969 -11.369995 7.715332c-4.1419067 2.4093628 -8.297363 4.4938354 -12.46637 6.253479c-4.1419067 1.732544 -7.376953 2.598877 -9.705078 2.598877l0 43.449524c3.1673584 0 6.7407837 -0.50079346 10.720276 -1.5024414c4.006531 -1.001648 7.9589844 -2.328186 11.857239 -3.9794922c3.8983154 -1.6784668 7.4310913 -3.465149 10.59845 -5.3601685c3.1673584 -1.9220581 5.4954834 -3.8847046 6.984436 -5.8880005l0 49.662415l-35.409363 0l0 42.3938l115.48651 0l0 -42.3938l-31.673523 0l0 -100.055786z"/><defs><radialGradient id="p.9" cx="59.795" cy="90.02" r="16.59" fx="59.795" fy="90.02" gradientTransform="matrix(16.589852309140895 0.0 0.0 16.589852309140895 0.0 0.0)" gradientUnits="userSpaceOnUse" spreadMethod="pad"><stop offset="0" stop-color="#f48208"/><stop offset="1" stop-color="#703e08"/></radialGradient></defs><path fill="url(#p.9)" fill-rule="evenodd" d="m783.7125 1374.1478l416.5443 0c10.5448 0 20.657715 4.188965 28.114136 11.645264c7.456299 7.456299 11.645142 17.569336 11.645142 28.114136l0 198.79187c0 0.0021972656 -0.0018310547 0.0041503906 -0.0040283203 0.0041503906l-496.0589 -0.0041503906l0 0c-0.002319336 0 -0.0041503906 -0.0018310547 -0.0041503906 -0.0041503906l0.0041503906 -198.78772l0 0c0 -21.958496 17.800842 -39.7594 39.75934 -39.7594z"/><path fill-rule="evenodd" stroke="#b45f06" stroke-linecap="butt" stroke-linejoin="round" stroke-width="16" d="m783.7125 1374.1478l416.5443 0c10.5448 0 20.657715 4.188965 28.114136 11.645264c7.456299 7.456299 11.645142 17.569336 11.645142 28.114136l0 198.79187c0 0.0021972656 -0.0018310547 0.0041503906 -0.0040283203 0.0041503906l-496.0589 -0.0041503906l0 0c-0.002319336 0 -0.0041503906 -0.0018310547 -0.0041503906 -0.0041503906l0.0041503906 -198.78772l0 0c0 -21.958496 17.800842 -39.7594 39.75934 -39.7594z"/><defs><radialGradient id="p.10" cx="60.752" cy="96.817" r="16.328" fx="60.752" fy="96.817" gradientTransform="matrix(16.328428494491977 0.0 0.0 16.328428494491977 0.0 0.0)" gradientUnits="userSpaceOnUse" spreadMethod="pad"><stop offset="0" stop-color="#f48208"/><stop offset="1" stop-color="#703e08"/></radialGradient></defs><path fill="url(#p.10)" fill-rule="evenodd" d="m737.8873 1549.0455l508.1991 0c2.8137207 0 5.512207 1.1176758 7.501709 3.1072998c1.989624 1.989624 3.1074219 4.6881104 3.1074219 7.501831l0 53.044434c0 0.0024414062 -0.001953125 0.0043945312 -0.0043945312 0.0043945312l-529.41296 -0.0043945312l0 0c-0.0024414062 0 -0.0043945312 -0.001953125 -0.0043945312 -0.0043945312l0.0043945312 -53.04004l0 0c0 -5.859253 4.749878 -10.609131 10.609131 -10.609131z"/><path fill-rule="evenodd" stroke="#b45f06" stroke-linecap="butt" stroke-linejoin="round" stroke-width="16" d="m737.8873 1549.0455l508.1991 0c2.8137207 0 5.512207 1.1176758 7.501709 3.1072998c1.989624 1.989624 3.1074219 4.6881104 3.1074219 7.501831l0 53.044434c0 0.0024414062 -0.001953125 0.0043945312 -0.0043945312 0.0043945312l-529.41296 -0.0043945312l0 0c-0.0024414062 0 -0.0043945312 -0.001953125 -0.0043945312 -0.0043945312l0.0043945312 -53.04004l0 0c0 -5.859253 4.749878 -10.609131 10.609131 -10.609131z"/></g></svg>